<svg xmlns="http://www.w3.org/2000/svg" width="692.68042" height="534.43022" viewBox="0 0 692.68042 534.43022" xmlns:xlink="http://www.w3.org/1999/xlink"><g><path id="uuid-ff13be3e-e688-44b8-a5a4-9222d4169583-29" d="m215.22482,295.97504c2.92899-3.92648,4.87476-8.4975,5.67453-13.33044l32.60051-39.47682-19.23785-14.96289-30.99753,41.65599c-4.34254,2.26343-8.07993,5.53397-10.89941,9.53796-7.1944,9.92477-7.90642,21.67676-1.59264,26.25391,6.3138,4.57715,17.2619.24454,24.45244-9.67767l-.00003-.00003h-.00002Z" fill="#ffb6b6"/><polygon points="347.25571 139.28995 306.48355 112.03876 223.72263 237.96309 245.26717 261.09049 347.25571 139.28995" fill="#6c63ff"/></g><path d="m0,292.55454c0,.8714.69976,1.57108,1.57114,1.57108h689.53823c.87134,0,1.57104-.69968,1.57104-1.57108,0-.87131-.69977-1.57108-1.57104-1.57108H1.57114c-.87139,0-1.57114.69977-1.57114,1.57108Z" fill="#3f3d56"/><polygon points="277.65814 104.04289 273.10938 72.6881 313.29047 62.47334 318.62921 90.20503 277.65814 104.04289" fill="#ffb6b6"/><g><polygon points="156.47003 439.90112 161.23775 484.39969 194.08192 474.33456 188.78447 438.84164 156.47003 439.90112" fill="#ffb6b6"/><path d="m272.48416,246.54422s-107.53822,20.66006-120.25211,51.91501,2.11897,148.32858,2.11897,148.32858l36.5524,3.70822,15.36259-134.55524s93.23514-1.58923,100.1218-12.71387,5.82718-51.38525,5.82718-51.38525l-39.73087-5.29745v-.00002h.00003v.00002Z" fill="#2f2e41"/><path d="m156.9037,462.51041h0l-21.29582,21.16342s-36.3503,29.86182-13.04152,28.27258,83.69971-15.89236,83.16995-27.017-10.06516-33.37393-10.06516-33.37393l-38.76746,10.95493Z" fill="#2f2e41"/></g><g><polygon points="280.97049 452.72284 304.98969 490.48438 329.95639 466.88959 309.45877 437.43356 280.97049 452.72284" fill="#ffb6b6"/><path d="m299.13211,227.96448s-87.20184,66.23553-84.72566,99.88641c2.4762,33.65091,67.72112,131.98373,67.72112,131.98373l34.40186-12.89737-45.94302-127.39841s82.84702-42.79816,84.08182-55.82349-17.58069-48.63455-17.58069-48.63455l-37.95544,12.88367.00003-.00002v.00002Z" fill="#2f2e41"/><path d="m292.10059,470.28387h0l-12.13303,32.26834s-17.59177,41.54654,2.59106,29.77884,67.95477-51.3844,62.54337-61.11862-23.82983-25.44141-23.82983-25.44141l-29.17157,24.51282v.00003Z" fill="#2f2e41"/></g><circle cx="291.74435" cy="49.81062" r="32.69619" fill="#ffb6b6"/><path d="m315.92325,74.90684l-40.79037,30.19546-6.35693,131.37675-15.36259,14.83286,52.9745,51.91502s58.27194-18.01132,52.44476-45.55807l-5.82718-27.54674,2.1033-30.7404c3.0752-44.94525-10.91824-89.39632-39.18539-124.47482l-.00003-.00005-.00006.00002v-.00002Z" fill="#6c63ff"/><path d="m315.26233,75.58883l-19.89734-.65791s5.16422-31.18455-7.14465-31.00569l-12.30887.17886,1.19193-5.46602s-27.81425-18.74414-15.05905-26.59659c12.75519-7.85245,21.65604-14.90941,28.95377-10.86407,7.29776,4.04535,22.08423,5.63376,22.08423,5.63376,0,0,26.22333,11.0353,25.4364,20.2706s-6.73801,49.65517-23.25647,48.50706c0,0,.00006,0,.00006,0Z" fill="#2f2e41"/><g><path id="uuid-f20c4bf1-8cad-421e-b900-6f3d36470277-30" d="m228.46378,298.086c2.73212-4.06592,4.45045-8.7272,5.01131-13.59363l30.61729-41.03409-19.95126-13.99753-28.90895,43.13171c-4.22585,2.47452-7.79767,5.92508-10.4166,10.06299-6.69701,10.26694-6.82954,22.03976-.29807,26.30051,6.53149,4.26074,17.25301-.60568,23.94629-10.8699l-.00002-.00003h0l.00002-.00003h-.00002Z" fill="#ffb6b6"/><polygon points="352.61987 135.09021 310.55539 109.87954 234.09496 239.72604 256.75204 261.76456 352.61987 135.09021" fill="#6c63ff"/></g><polygon points="566.48395 329.05536 575.45685 415.05618 541.21588 417.81339 539.26239 334.33899 566.48395 329.05536" fill="#ffb6b6"/><path d="m575.87494,396.08633h0l27.59967,11.81778s44.8009,14.35095,22.54907,21.46997-83.66077,16.09616-87.27112,5.5603c-3.61035-10.53583-2.95258-34.7334-2.95258-34.7334l40.07489-4.11465h.00006Z" fill="#2f2e41"/><path d="m428.40387,219.16l14.22504,6.81863s104.57672-5.87199,111.67639,13.53386c7.09973,19.40587,20.82581,135.36775,20.82581,135.36775l-36.91846,2.36658-16.09265-78.5701-93.71613-79.51672h0Z" fill="#2f2e41"/><g><path id="uuid-e5e4e7dc-1fc5-4619-a0c7-86a8c6313411-31" d="m527.45319,242.62315c-3.50665-3.42046-7.78174-5.95113-12.46722-7.38023l-34.84091-37.51433-17.36554,17.10034,37.21216,36.21219c1.672,4.60275,4.42203,8.73817,8.01987,12.06032,8.89111,8.43848,20.44708,10.69159,25.81567,5.0354s2.51514-17.07944-6.37396-25.51375v.00005h-.00006v.00002Z" fill="#ffb6b6"/><polygon points="389.51556 91.11219 357.13345 127.94148 471.06512 226.56139 496.82773 208.24941 389.51556 91.11219" fill="#6c63ff"/></g><polygon points="514.37897 327.29779 459.23886 393.90277 433.30258 371.37814 491.55161 311.55481 514.37897 327.29779" fill="#ffb6b6"/><path d="m472.08075,375.65421h0l10.87839,27.98325s21.10928,42.04129.44974,31.13226-70.05432-48.48294-65.05682-58.436,22.73953-26.42047,22.73953-26.42047l30.9892,25.74094-.00003.00003Z" fill="#2f2e41"/><path d="m365.92648,246.13889s-20.82581,49.22464,13.25278,49.22464,114.06863-2.83987,114.06863-2.83987l-23.66568,41.65161,27.92551,14.1994s58.69095-55.37772,54.90439-80.46335-109.78314-41.93269-109.78314-41.93269l-21.41226,5.62793-55.29022,14.53232-.00003.00002h.00003Z" fill="#2f2e41"/><path d="m363.11322,11.10682s36.74158,1.95447,40.0318,16.04867c3.29022,14.09421-4.24167,28.48474,7.57745,28.32974s15.95435,5.10944,15.95435,5.10944c0,0-12.05914,34.1545-31.00067,36.1144s-32.56293-85.60226-32.56293-85.60225Z" fill="#2f2e41"/><polygon points="387.74966 105.29172 388.88852 73.62921 347.8399 67.80974 345.5246 95.95559 387.74966 105.29172" fill="#ffb6b6"/><path d="m398.90112,42.52359c5.72858,17.12486-3.50995,35.65121-20.63483,41.37978s-35.65121-3.50995-41.37979-20.63481,3.50995-35.65121,20.63483-41.37978,35.65121,3.50995,41.37979,20.63482Z" fill="#ffb6b6"/><path d="m393.30957,92.89469l-37.57663-7.82847-6.99649,62.77698c-1.79379,6.95996,1.66599,33.39568,3.50809,40.34299l11.31689,76.15195,79.0675-38.3595-18.00546-44.62225,3.91422-32.09671-35.22809-56.36496-.00003-.00002Z" fill="#6c63ff"/><path id="uuid-e25a2b4b-d68f-4b56-bf5d-88e58f2fa173-32" d="m411.17224,177.09137c-4.79593.99771-9.28305,3.12982-13.08585,6.21774l-50.57816,7.94112,4.48245,23.95602,50.82281-10.63525c4.75165,1.18443,9.71786,1.21371,14.48318.08543,11.96588-2.66048,20.2901-10.98653,18.59784-18.59906-1.69229-7.61253-12.76096-11.62717-24.72226-8.966v.00003h0v-.00003h-.00003Z" fill="#ffb6b6"/><path d="m381.27707,132.49011l-33.92926-29.02769-50.06476,87.78911c-1.48495,20.46118,17.18994,36.55872,37.20859,32.07333l44.89545-10.94817-8.57278-36.12909-25.24484-.92664,35.70761-42.83086Z" fill="#6c63ff"/><path d="m342.73627,17.44843s-40.24069,11.08702-31.11057,27.02639,19.85434,20.4242,18.52188,29.41703,9.26294,43.91044,25.3663,38.52357,40.16223-15.70634,40.16223-15.70634c0,0-33.95901-28.52658-27.98441-33.37423s-12.88608-39.00255-12.88608-39.00255c0,0,19.15005-9.25506,29.30286-6.47845,10.15277,2.77662,15.8063,1.83509,15.8063,1.83509,0,0-27.65067-25.88845-39.94498-15.60287-12.29431,10.28557-17.23352,13.36233-17.23352,13.36233h-.00003v.00002Z" fill="#2f2e41"/></svg>